<svg xmlns="http://www.w3.org/2000/svg" version="1.1" xmlns:xlink="http://www.w3.org/1999/xlink" xmlns:svgjs="http://svgjs.dev/svgjs" width="1440" height="560" preserveAspectRatio="none" viewBox="0 0 1440 560"><g mask="url(&quot;#SvgjsMask1005&quot;)" fill="none"><path d="M357.495,324.757C402.803,321.448,443.959,297.605,465.467,257.59C485.901,219.572,479.019,174.913,458.42,136.984C436.65,96.899,403.089,60.174,357.495,58.782C309.948,57.33,271,90.448,245.298,130.476C216.793,174.87,191.864,229.961,218.248,275.647C244.629,321.328,304.884,328.6,357.495,324.757" fill="rgba(64, 91, 18, 0.4)" class="triangle-float1"></path><path d="M1204.778,558.049C1236.245,558.631,1267.496,547.69,1284.922,521.483C1304.371,492.232,1311.231,454.307,1294.177,423.598C1276.704,392.135,1240.738,375.729,1204.778,377.172C1171.153,378.522,1142.794,400.592,1127.002,430.308C1112.191,458.178,1113.199,491.652,1129.612,518.609C1145.383,544.512,1174.457,557.488,1204.778,558.049" fill="rgba(64, 91, 18, 0.4)" class="triangle-float3"></path><path d="M1197.143,274.064C1248.689,272.075,1275.319,217.724,1299.358,172.084C1321.142,130.724,1340.608,84.17,1318.991,42.722C1296.048,-1.27,1246.711,-26.051,1197.143,-23.903C1150.832,-21.896,1115.313,12.301,1092.31,52.545C1069.519,92.419,1060.645,139.022,1080.291,180.536C1103.165,228.87,1143.71,276.125,1197.143,274.064" fill="rgba(64, 91, 18, 0.4)" class="triangle-float1"></path><path d="M348.479,19.084C366.113,20.303,383.744,11.161,391.984,-4.477C399.79,-19.292,394.012,-36.55,385.342,-50.877C377.052,-64.577,364.471,-75.55,348.479,-76.372C331.011,-77.269,312.411,-70.591,304.414,-55.035C296.86,-40.34,305.837,-24.053,314.281,-9.85C322.459,3.906,332.513,17.98,348.479,19.084" fill="rgba(64, 91, 18, 0.4)" class="triangle-float2"></path><path d="M550.208,618.708C575.516,618.209,599.61,607.658,613.224,586.318C627.971,563.201,632.654,533.984,619.66,509.838C606.039,484.526,578.947,469.737,550.208,469.221C520.515,468.688,490.887,481.395,476.301,507.265C461.934,532.746,466.57,564.512,482.737,588.89C497.303,610.853,523.859,619.227,550.208,618.708" fill="rgba(64, 91, 18, 0.4)" class="triangle-float3"></path><path d="M1127.564,440.341C1145.782,440.805,1159.673,425.721,1168.336,409.688C1176.512,394.556,1179.08,376.26,1170.119,361.579C1161.468,347.406,1144.169,342.833,1127.564,342.889C1111.08,342.945,1093.734,347.583,1085.507,361.867C1077.291,376.132,1082.459,393.19,1090.235,407.7C1098.604,423.315,1109.854,439.89,1127.564,440.341" fill="rgba(64, 91, 18, 0.4)" class="triangle-float1"></path><path d="M1416.239,341.181C1444.101,342.414,1473.768,333.955,1487.718,309.806C1501.672,285.65,1494.01,255.827,1479.199,232.187C1465.398,210.158,1442.222,196.509,1416.239,195.716C1388.696,194.875,1359.83,204.152,1346.248,228.128C1332.812,251.846,1340.589,280.752,1354.938,303.929C1368.428,325.718,1390.637,340.048,1416.239,341.181" fill="rgba(64, 91, 18, 0.4)" class="triangle-float1"></path></g><defs><mask id="SvgjsMask1005"><rect width="1440" height="560" fill="#ffffff"></rect></mask><style>
                @keyframes float1 {
                    0%{transform: translate(0, 0)}
                    50%{transform: translate(-10px, 0)}
                    100%{transform: translate(0, 0)}
                }

                .triangle-float1 {
                    animation: float1 5s infinite;
                }

                @keyframes float2 {
                    0%{transform: translate(0, 0)}
                    50%{transform: translate(-5px, -5px)}
                    100%{transform: translate(0, 0)}
                }

                .triangle-float2 {
                    animation: float2 4s infinite;
                }

                @keyframes float3 {
                    0%{transform: translate(0, 0)}
                    50%{transform: translate(0, -10px)}
                    100%{transform: translate(0, 0)}
                }

                .triangle-float3 {
                    animation: float3 6s infinite;
                }
            </style></defs></svg>