<svg id="visual" viewBox="0 0 900 600" width="900" height="600" xmlns="http://www.w3.org/2000/svg" xmlns:xlink="http://www.w3.org/1999/xlink" version="1.1"><rect x="0" y="0" width="900" height="600" fill="#fccc92"></rect><defs><linearGradient id="grad1_0" x1="33.3%" y1="0%" x2="100%" y2="100%"><stop offset="20%" stop-color="#fccc92" stop-opacity="1"></stop><stop offset="80%" stop-color="#fccc92" stop-opacity="1"></stop></linearGradient></defs><defs><linearGradient id="grad2_0" x1="0%" y1="0%" x2="66.7%" y2="100%"><stop offset="20%" stop-color="#fccc92" stop-opacity="1"></stop><stop offset="80%" stop-color="#fccc92" stop-opacity="1"></stop></linearGradient></defs><g transform="translate(900, 0)"><path d="M0 486.7C-47.5 444.5 -95 402.2 -160 386.2C-225 370.1 -307.4 380.3 -344.2 344.2C-380.9 308.1 -371.9 225.8 -388 160.7C-404.2 95.7 -445.5 47.8 -486.7 0L0 0Z" fill="#f98a80"></path></g><g transform="translate(0, 600)"><path d="M0 -486.7C65.2 -472 130.5 -457.2 174.5 -421.3C218.5 -385.4 241.4 -328.4 289.9 -289.9C338.4 -251.4 412.6 -231.5 449.7 -186.3C486.8 -141 486.8 -70.5 486.7 0L0 0Z" fill="#f98a80"></path></g></svg>