<svg xmlns="http://www.w3.org/2000/svg" version="1.1" xmlns:xlink="http://www.w3.org/1999/xlink" xmlns:svgjs="http://svgjs.dev/svgjs" width="1200" height="560" preserveAspectRatio="none" viewBox="0 0 1200 560"><g mask="url(&quot;#SvgjsMask1034&quot;)" fill="none"><path d="M703.084,265.455C718.473,266.522,735.475,262.291,742.908,248.774C750.17,235.568,743.515,219.795,735.048,207.327C727.763,196.599,716.051,190.008,703.084,190.129C690.334,190.248,678.558,196.898,672.14,207.916C665.679,219.009,665.718,232.538,671.798,243.844C678.232,255.809,689.532,264.516,703.084,265.455" fill="rgba(224, 237, 231, 0.4)" class="triangle-float1"></path><path d="M400.812,374.562C452.753,372.328,487.908,327.719,513.462,282.444C538.445,238.18,556.251,186.318,532.388,141.44C507.322,94.3,454.141,68.043,400.812,70.586C351.326,72.946,314.432,110.33,289.313,153.032C263.735,196.514,247.35,247.852,270.03,292.913C294.794,342.114,345.781,376.928,400.812,374.562" fill="rgba(224, 237, 231, 0.4)" class="triangle-float1"></path><path d="M257.452,107.029C280.548,107.41,300.339,91.517,311.238,71.151C321.522,51.934,321.149,28.456,309.281,10.174C298.337,-6.684,277.537,-10.953,257.452,-11.704C235.455,-12.526,210.128,-12.626,198.446,6.031C186.326,25.388,195.133,49.707,206.654,69.426C218.044,88.923,234.875,106.657,257.452,107.029" fill="rgba(224, 237, 231, 0.4)" class="triangle-float1"></path><path d="M237.842,347.735C272.412,348.046,307.281,338.348,326.896,309.88C349.429,277.177,358.103,234.832,339.987,199.491C320.399,161.28,280.763,134.902,237.842,136.156C196.684,137.359,163.997,168.366,145.54,205.174C128.997,238.165,131.465,277.321,151.523,308.301C169.95,336.761,203.938,347.43,237.842,347.735" fill="rgba(224, 237, 231, 0.4)" class="triangle-float3"></path><path d="M639.157,162.93C672.772,164.649,703.714,142.577,718.697,112.436C732.313,85.044,721.144,54.494,706.376,27.705C690.886,-0.393,671.227,-30.862,639.157,-31.851C605.964,-32.875,578.883,-6.536,564.348,23.323C551.517,49.681,558.711,79.126,572.557,104.965C587.456,132.769,607.654,161.319,639.157,162.93" fill="rgba(224, 237, 231, 0.4)" class="triangle-float3"></path><path d="M784.368,238.825C821.826,237.215,856.841,217.603,874.023,184.279C889.989,153.314,879.176,117.998,862.414,87.456C844.785,55.336,821.006,21.348,784.368,20.922C747.267,20.49,722.346,53.874,703.111,85.603C682.847,119.029,661.974,158.074,680.288,192.607C699.35,228.551,743.72,240.572,784.368,238.825" fill="rgba(224, 237, 231, 0.4)" class="triangle-float3"></path><path d="M1092.581,191.974C1112.674,191.658,1134.552,191.151,1146.115,174.716C1159.263,156.029,1161.354,130.482,1149.651,110.858C1138.182,91.626,1114.893,83.055,1092.581,84.95C1073.145,86.601,1060.404,102.717,1050.151,119.311C1039.099,137.198,1025.445,158.29,1036.047,176.447C1046.609,194.534,1071.639,192.303,1092.581,191.974" fill="rgba(224, 237, 231, 0.4)" class="triangle-float3"></path><path d="M40.463,231.082C63.468,229.219,84.686,218.768,96.503,198.943C108.621,178.613,109.149,154.166,99.079,132.747C87.067,107.198,68.668,80.973,40.463,79.75C10.817,78.464,-12.924,101.501,-27.674,127.25C-42.322,152.821,-50.032,184.863,-33.864,209.501C-18.694,232.619,12.902,233.314,40.463,231.082" fill="rgba(224, 237, 231, 0.4)" class="triangle-float3"></path><path d="M957.762,448.701C985.507,450.332,1012.532,435.601,1025.954,411.264C1038.98,387.646,1034.502,358.696,1019.913,336.01C1006.51,315.169,982.523,304.274,957.762,305.224C934.617,306.112,914.714,320.296,903.354,340.481C892.224,360.256,891.983,383.712,902.176,403.986C913.624,426.757,932.319,447.205,957.762,448.701" fill="rgba(224, 237, 231, 0.4)" class="triangle-float1"></path><path d="M1109.951,290.492C1147.749,290.297,1182.597,270.611,1201.865,238.092C1221.524,204.913,1225.136,163.038,1204.932,130.188C1185.529,98.64,1146.879,85.816,1109.951,88.65C1077.607,91.132,1054.394,115.513,1037.257,143.056C1018.716,172.857,1000.854,207.572,1016.375,239.052C1033.246,273.269,1071.802,290.689,1109.951,290.492" fill="rgba(224, 237, 231, 0.4)" class="triangle-float2"></path><path d="M34.108,490.794C60.805,492.738,87.369,479.527,100.596,456.255C113.688,433.221,109.289,405.054,95.801,382.249C82.584,359.901,60.069,344.257,34.108,343.837C7.424,343.405,-19.266,356.297,-31.143,380.195C-42.087,402.216,-29.983,426.478,-17.488,447.657C-5.279,468.351,10.144,489.049,34.108,490.794" fill="rgba(224, 237, 231, 0.4)" class="triangle-float2"></path><path d="M249.247,115.142C262.673,115.439,276.317,111.87,284.021,100.871C292.99,88.066,296.928,71.304,289.642,57.472C281.934,42.838,265.769,34.072,249.247,34.854C233.862,35.582,221.851,47.225,214.973,61.006C208.841,73.294,209.695,87.785,217.041,99.388C223.893,110.21,236.441,114.859,249.247,115.142" fill="rgba(224, 237, 231, 0.4)" class="triangle-float2"></path></g><defs><mask id="SvgjsMask1034"><rect width="1200" height="560" fill="#ffffff"></rect></mask><style>
                @keyframes float1 {
                    0%{transform: translate(0, 0)}
                    50%{transform: translate(-10px, 0)}
                    100%{transform: translate(0, 0)}
                }

                .triangle-float1 {
                    animation: float1 5s infinite;
                }

                @keyframes float2 {
                    0%{transform: translate(0, 0)}
                    50%{transform: translate(-5px, -5px)}
                    100%{transform: translate(0, 0)}
                }

                .triangle-float2 {
                    animation: float2 4s infinite;
                }

                @keyframes float3 {
                    0%{transform: translate(0, 0)}
                    50%{transform: translate(0, -10px)}
                    100%{transform: translate(0, 0)}
                }

                .triangle-float3 {
                    animation: float3 6s infinite;
                }
            </style></defs></svg>