<svg xmlns="http://www.w3.org/2000/svg" version="1.1" xmlns:xlink="http://www.w3.org/1999/xlink" xmlns:svgjs="http://svgjs.dev/svgjs" width="1200" height="560" preserveAspectRatio="none" viewBox="0 0 1200 560"><g mask="url(&quot;#SvgjsMask1077&quot;)" fill="none"><path d="M109.916,409.37C156.02,409.821,203.832,397.034,228.281,357.945C254.053,316.74,253.853,262.531,227.165,221.913C202.589,184.508,154.6,175.264,109.916,177.798C70.148,180.053,35.188,200.522,13.638,234.021C-10.135,270.977,-25.656,317.151,-4.507,355.669C17.227,395.253,64.76,408.929,109.916,409.37" fill="rgba(130, 138, 237, 0.13)" class="triangle-float1"></path><path d="M964.706,678.66C1014.126,677.358,1054.004,642.226,1077.764,598.873C1100.508,557.373,1101.674,509.025,1081.007,466.452C1057.028,417.057,1019.504,369.453,964.706,365.982C904.982,362.199,847.264,396.764,819.739,449.902C794,499.593,810.883,557.844,840.838,605.114C868.387,648.586,913.258,680.015,964.706,678.66" fill="rgba(130, 138, 237, 0.13)" class="triangle-float1"></path><path d="M446.769,208.282C477.541,210.094,505.261,190.872,521.061,164.404C537.295,137.209,541.699,103.276,525.805,75.881C509.962,48.573,478.311,35.004,446.769,36.353C417.461,37.606,391.836,55.977,378.633,82.173C366.625,105.998,373.551,132.989,386.233,156.462C399.766,181.509,418.349,206.608,446.769,208.282" fill="rgba(130, 138, 237, 0.13)" class="triangle-float1"></path><path d="M177.172,278.607C220.972,277.217,260.646,252.529,281.394,213.93C301.11,177.251,294.505,134.086,274.479,97.576C253.51,59.347,220.768,24.642,177.172,23.917C132.597,23.176,96.763,55.857,74.093,94.244C50.952,133.429,38.617,181.209,60.825,220.93C83.466,261.424,130.801,280.079,177.172,278.607" fill="rgba(130, 138, 237, 0.13)" class="triangle-float2"></path><path d="M37.683,123.404C63.598,123.651,89.913,116.832,104.647,95.512C121.585,71.001,128.912,38.581,114.209,12.668C99.359,-13.503,67.769,-22.991,37.683,-22.505C8.557,-22.034,-20.542,-10.398,-34.676,15.073C-48.464,39.922,-42.891,70.626,-27.107,94.257C-13.009,115.364,12.302,123.162,37.683,123.404" fill="rgba(130, 138, 237, 0.13)" class="triangle-float3"></path><path d="M258.81,256.04C282.691,254.627,302.199,238.943,314.015,218.142C325.666,197.631,328.744,173.108,317.78,152.222C306.018,129.815,284.115,113.272,258.81,112.976C233.041,112.674,210.706,128.744,197.397,150.812C183.581,173.721,177.512,202.315,190.997,225.421C204.396,248.379,232.274,257.61,258.81,256.04" fill="rgba(130, 138, 237, 0.13)" class="triangle-float1"></path><path d="M162.313,721.828C213.035,722.227,270.783,720.187,296.936,676.725C323.591,632.429,303.308,577.237,275.574,533.609C250.189,493.676,209.627,464.279,162.313,464.95C116.036,465.606,79.003,497.492,54.48,536.743C28.011,579.109,6.161,631.472,31.309,674.636C56.352,717.62,112.568,721.437,162.313,721.828" fill="rgba(130, 138, 237, 0.13)" class="triangle-float2"></path><path d="M788.739,428.181C820.575,428.872,850.347,410.77,865.394,382.707C879.707,356.014,873.804,324.31,858.425,298.217C843.321,272.591,818.42,254.612,788.739,252.651C755.055,250.425,717.545,258.37,701.04,287.817C684.765,316.854,700.001,351.27,717.639,379.5C733.951,405.608,757.961,427.513,788.739,428.181" fill="rgba(130, 138, 237, 0.13)" class="triangle-float2"></path><path d="M82.547,651.777C114.81,651.197,149.698,648.441,167.696,621.659C187.511,592.173,187.151,553.127,169.599,522.239C151.842,490.99,118.489,471.907,82.547,471.813C46.442,471.719,13.105,490.718,-5.294,521.783C-24.06,553.468,-28.694,594.308,-8.076,624.82C10.837,652.808,48.773,652.384,82.547,651.777" fill="rgba(130, 138, 237, 0.13)" class="triangle-float3"></path><path d="M159.053,485.421C211.847,489.143,261.136,455.312,285.577,408.369C308.404,364.527,296.861,312.803,270.793,270.807C246.315,231.373,205.465,204.822,159.053,204.539C112.152,204.253,66.788,227.934,44.931,269.432C24.291,308.618,39.378,353.31,60.068,392.469C82.731,435.362,110.661,482.009,159.053,485.421" fill="rgba(130, 138, 237, 0.13)" class="triangle-float1"></path></g><defs><mask id="SvgjsMask1077"><rect width="1200" height="560" fill="#ffffff"></rect></mask><style>
                @keyframes float1 {
                    0%{transform: translate(0, 0)}
                    50%{transform: translate(-10px, 0)}
                    100%{transform: translate(0, 0)}
                }

                .triangle-float1 {
                    animation: float1 5s infinite;
                }

                @keyframes float2 {
                    0%{transform: translate(0, 0)}
                    50%{transform: translate(-5px, -5px)}
                    100%{transform: translate(0, 0)}
                }

                .triangle-float2 {
                    animation: float2 4s infinite;
                }

                @keyframes float3 {
                    0%{transform: translate(0, 0)}
                    50%{transform: translate(0, -10px)}
                    100%{transform: translate(0, 0)}
                }

                .triangle-float3 {
                    animation: float3 6s infinite;
                }
            </style></defs></svg>