<svg xmlns="http://www.w3.org/2000/svg" version="1.1" xmlns:xlink="http://www.w3.org/1999/xlink" xmlns:svgjs="http://svgjs.dev/svgjs" width="1200" height="560" preserveAspectRatio="none" viewBox="0 0 1200 560"><g mask="url(&quot;#SvgjsMask1493&quot;)" fill="none"><path d="M116.113,228.002C160.336,230.081,205.975,218.911,231.458,182.708C261.119,140.569,273.636,84.658,248.787,39.514C223.231,-6.915,169.076,-28.766,116.113,-26.848C66.414,-25.048,21.022,3.916,-0.898,48.557C-20.672,88.827,-6.366,135.1,18.139,172.679C40.095,206.351,75.959,226.114,116.113,228.002" fill="rgba(233, 185, 155, 0.4)" class="triangle-float3"></path><path d="M17.254,70.067C34.347,69.932,43.827,52.335,52.293,37.484C60.64,22.842,69.58,6.463,62.131,-8.655C54.022,-25.114,35.602,-33.529,17.254,-33.629C-1.279,-33.73,-20.161,-25.711,-28.481,-9.151C-36.209,6.232,-27.361,23.134,-18.754,38.043C-10.146,52.953,0.039,70.203,17.254,70.067" fill="rgba(233, 185, 155, 0.4)" class="triangle-float2"></path><path d="M16.747,61.612C31.961,60.715,43.105,49.538,51.42,36.766C60.888,22.223,71.571,5.115,63.546,-10.272C55.173,-26.325,34.827,-30.654,16.747,-29.711C0.411,-28.859,-13.891,-19.828,-22.299,-5.796C-30.974,8.683,-34.271,26.713,-25.811,41.319C-17.368,55.895,-0.069,62.603,16.747,61.612" fill="rgba(233, 185, 155, 0.4)" class="triangle-float3"></path><path d="M1236.307,296.471C1286.787,291.878,1328.745,260.186,1352.9,215.622C1375.85,173.282,1376.639,122.891,1353.197,80.821C1329.098,37.572,1285.718,9.514,1236.307,6.38C1180.406,2.834,1122.166,17.916,1090.561,64.16C1054.831,116.439,1042.435,187.17,1076.087,240.81C1108.291,292.141,1175.959,301.962,1236.307,296.471" fill="rgba(233, 185, 155, 0.4)" class="triangle-float2"></path><path d="M1159.254,149.231C1190.957,150.973,1224.899,145.684,1243.053,119.635C1263.711,89.993,1268.804,49.719,1250.183,18.757C1232.004,-11.469,1194.508,-20.801,1159.254,-19.697C1126.183,-18.661,1093.154,-5.088,1077.686,24.161C1062.999,51.934,1072.854,84.914,1090.016,111.229C1105.43,134.864,1131.079,147.683,1159.254,149.231" fill="rgba(233, 185, 155, 0.4)" class="triangle-float1"></path><path d="M1103.382,56.608C1120.466,57.077,1140.313,56.438,1148.804,41.607C1157.267,26.825,1148.117,9.18,1138.641,-4.974C1130.457,-17.199,1118.084,-25.737,1103.382,-26.242C1087.708,-26.78,1072.032,-20.813,1063.665,-7.549C1054.744,6.593,1053.282,25.009,1062.083,39.226C1070.509,52.837,1087.38,56.169,1103.382,56.608" fill="rgba(233, 185, 155, 0.4)" class="triangle-float2"></path><path d="M130.404,726.723C185.441,726.558,239.204,704.737,268.281,658.008C299.023,608.602,306.262,543.963,274.437,495.247C244.754,449.809,184.572,443.57,130.404,446.953C83.099,449.907,40.527,471.877,14.487,511.48C-14.799,556.021,-34.189,611.906,-8.914,658.839C17.339,707.587,75.036,726.889,130.404,726.723" fill="rgba(233, 185, 155, 0.4)" class="triangle-float2"></path><path d="M27.794,524.443C45.503,524.007,61.751,515.818,71.499,501.027C82.449,484.412,89.284,463.268,79.546,445.915C69.661,428.3,47.993,423.255,27.794,423.147C7.355,423.037,-14.49,427.782,-24.929,445.354C-35.539,463.214,-31.33,485.992,-19.807,503.277C-9.483,518.763,9.188,524.901,27.794,524.443" fill="rgba(233, 185, 155, 0.4)" class="triangle-float1"></path><path d="M99.937,648.229C135.915,645.803,169.506,629.738,187.894,598.719C206.658,567.066,207.487,528.301,190.324,495.752C171.884,460.782,139.41,434.109,99.937,431.916C56.542,429.505,13.128,447.655,-9.696,484.641C-33.622,523.412,-36.65,574.306,-11.287,612.152C11.97,646.855,58.257,651.04,99.937,648.229" fill="rgba(233, 185, 155, 0.4)" class="triangle-float2"></path><path d="M1214.823,707.387C1259.852,704.955,1295.122,673.256,1317.659,634.196C1340.183,595.159,1350.375,548.556,1329.515,508.605C1307.178,465.825,1263.064,435.878,1214.823,437.244C1168.502,438.556,1134.491,474.938,1110.854,514.796C1086.584,555.722,1068.154,604.582,1090.757,646.452C1114.216,689.906,1165.513,710.051,1214.823,707.387" fill="rgba(233, 185, 155, 0.4)" class="triangle-float2"></path><path d="M1231.621,720.938C1279.183,721.205,1325.557,700.769,1349.954,659.94C1374.956,618.099,1373.786,565.824,1349.591,523.511C1325.217,480.884,1280.722,453.481,1231.621,452.991C1181.665,452.493,1134.057,477.608,1109.502,521.115C1085.332,563.94,1089.922,616.665,1115.565,658.625C1140.106,698.781,1184.561,720.674,1231.621,720.938" fill="rgba(233, 185, 155, 0.4)" class="triangle-float3"></path><path d="M1127.039,562.864C1152.311,561.938,1172.193,542.185,1182.758,519.209C1191.735,499.687,1184.624,478.59,1174.506,459.634C1163.524,439.058,1150.362,414.821,1127.039,414.817C1103.712,414.813,1091.271,439.452,1079.54,459.615C1067.706,479.956,1053.931,502.19,1063.766,523.569C1074.887,547.744,1100.447,563.838,1127.039,562.864" fill="rgba(233, 185, 155, 0.4)" class="triangle-float3"></path></g><defs><mask id="SvgjsMask1493"><rect width="1200" height="560" fill="#ffffff"></rect></mask><style>
                @keyframes float1 {
                    0%{transform: translate(0, 0)}
                    50%{transform: translate(-10px, 0)}
                    100%{transform: translate(0, 0)}
                }

                .triangle-float1 {
                    animation: float1 5s infinite;
                }

                @keyframes float2 {
                    0%{transform: translate(0, 0)}
                    50%{transform: translate(-5px, -5px)}
                    100%{transform: translate(0, 0)}
                }

                .triangle-float2 {
                    animation: float2 4s infinite;
                }

                @keyframes float3 {
                    0%{transform: translate(0, 0)}
                    50%{transform: translate(0, -10px)}
                    100%{transform: translate(0, 0)}
                }

                .triangle-float3 {
                    animation: float3 6s infinite;
                }
            </style></defs></svg>