<svg version="1.1" id="Layer_1" xmlns="http://www.w3.org/2000/svg" xmlns:xlink="http://www.w3.org/1999/xlink" x="0px" y="0px"
	 width="100%" viewBox="0 0 1024 336" enable-background="new 0 0 1024 336" xml:space="preserve">
<path fill="#000000" opacity="1.000000" stroke="none" 
	d="
M1.000000,326.482971 
	C3.961467,325.526245 5.380523,326.718781 5.355601,329.786804 
	C5.338140,331.936401 5.587982,334.088226 5.859223,336.619507 
	C4.383431,337.000000 2.766863,337.000000 1.000000,337.000000 
	C1.000000,333.656128 1.000000,330.311005 1.000000,326.482971 
z"/>
<path fill="#000000" opacity="1.000000" stroke="none" 
	d="
M699.180969,164.135864 
	C738.629150,165.306610 777.610962,164.809357 816.588074,164.998444 
	C827.944397,165.053528 838.757202,168.642624 849.898376,170.872086 
	C628.291443,172.059753 406.733826,172.131744 185.138321,170.837936 
	C196.792648,169.104507 208.180298,165.944702 220.070709,166.616043 
	C230.871552,167.225861 241.690170,167.257599 252.516220,166.490250 
	C262.806519,165.760864 273.126556,165.258057 283.440643,165.087357 
	C354.059387,163.918488 424.682434,165.098221 495.303986,164.831116 
	C553.616333,164.610565 611.930237,164.800583 670.243408,164.782608 
	C679.733093,164.779678 689.233765,165.121887 699.180969,164.135864 
z"/>
</svg>