<svg id="visual" viewBox="0 0 900 600" width="900" height="600" xmlns="http://www.w3.org/2000/svg" xmlns:xlink="http://www.w3.org/1999/xlink" version="1.1"><rect x="0" y="0" width="900" height="600" fill="#e3d5c2"></rect><defs><linearGradient id="grad1_0" x1="33.3%" y1="0%" x2="100%" y2="100%"><stop offset="20%" stop-color="#0f5862" stop-opacity="1"></stop><stop offset="80%" stop-color="#0f5862" stop-opacity="1"></stop></linearGradient></defs><defs><linearGradient id="grad1_1" x1="33.3%" y1="0%" x2="100%" y2="100%"><stop offset="20%" stop-color="#0f5862" stop-opacity="1"></stop><stop offset="80%" stop-color="#598274" stop-opacity="1"></stop></linearGradient></defs><defs><linearGradient id="grad1_2" x1="33.3%" y1="0%" x2="100%" y2="100%"><stop offset="20%" stop-color="#a0ab92" stop-opacity="1"></stop><stop offset="80%" stop-color="#598274" stop-opacity="1"></stop></linearGradient></defs><defs><linearGradient id="grad1_3" x1="33.3%" y1="0%" x2="100%" y2="100%"><stop offset="20%" stop-color="#a0ab92" stop-opacity="1"></stop><stop offset="80%" stop-color="#e3d5c2" stop-opacity="1"></stop></linearGradient></defs><defs><linearGradient id="grad2_0" x1="0%" y1="0%" x2="66.7%" y2="100%"><stop offset="20%" stop-color="#0f5862" stop-opacity="1"></stop><stop offset="80%" stop-color="#0f5862" stop-opacity="1"></stop></linearGradient></defs><defs><linearGradient id="grad2_1" x1="0%" y1="0%" x2="66.7%" y2="100%"><stop offset="20%" stop-color="#598274" stop-opacity="1"></stop><stop offset="80%" stop-color="#0f5862" stop-opacity="1"></stop></linearGradient></defs><defs><linearGradient id="grad2_2" x1="0%" y1="0%" x2="66.7%" y2="100%"><stop offset="20%" stop-color="#598274" stop-opacity="1"></stop><stop offset="80%" stop-color="#a0ab92" stop-opacity="1"></stop></linearGradient></defs><defs><linearGradient id="grad2_3" x1="0%" y1="0%" x2="66.7%" y2="100%"><stop offset="20%" stop-color="#e3d5c2" stop-opacity="1"></stop><stop offset="80%" stop-color="#a0ab92" stop-opacity="1"></stop></linearGradient></defs><g transform="translate(900, 0)"><path d="M0 432.7C-77 422.1 -153.9 411.5 -216.3 374.7C-278.8 337.9 -326.6 274.8 -360.3 208C-393.9 141.2 -413.3 70.6 -432.7 0L0 0Z" fill="#c3c0a8"></path><path d="M0 324.5C-57.7 316.6 -115.4 308.6 -162.2 281C-209.1 253.4 -245 206.1 -270.2 156C-295.4 105.9 -310 52.9 -324.5 0L0 0Z" fill="#7d9781"></path><path d="M0 216.3C-38.5 211 -77 205.8 -108.2 187.3C-139.4 168.9 -163.3 137.4 -180.1 104C-196.9 70.6 -206.6 35.3 -216.3 0L0 0Z" fill="#366d6b"></path><path d="M0 108.2C-19.2 105.5 -38.5 102.9 -54.1 93.7C-69.7 84.5 -81.7 68.7 -90.1 52C-98.5 35.3 -103.3 17.6 -108.2 0L0 0Z" fill="#0f5862"></path></g><g transform="translate(0, 600)"><path d="M0 -432.7C69.8 -411.9 139.6 -391.1 206.5 -357.7C273.4 -324.2 337.5 -278.1 374.7 -216.3C411.9 -154.6 422.3 -77.3 432.7 0L0 0Z" fill="#c3c0a8"></path><path d="M0 -324.5C52.3 -308.9 104.7 -293.3 154.9 -268.3C205.1 -243.2 253.1 -208.5 281 -162.2C308.9 -116 316.7 -58 324.5 0L0 0Z" fill="#7d9781"></path><path d="M0 -216.3C34.9 -205.9 69.8 -195.6 103.2 -178.8C136.7 -162.1 168.7 -139 187.3 -108.2C206 -77.3 211.1 -38.7 216.3 0L0 0Z" fill="#366d6b"></path><path d="M0 -108.2C17.4 -103 34.9 -97.8 51.6 -89.4C68.4 -81.1 84.4 -69.5 93.7 -54.1C103 -38.7 105.6 -19.3 108.2 0L0 0Z" fill="#0f5862"></path></g></svg>