<svg id="visual" viewBox="0 0 900 600" width="900" height="600" xmlns="http://www.w3.org/2000/svg" xmlns:xlink="http://www.w3.org/1999/xlink" version="1.1"><rect x="0" y="0" width="900" height="600" fill="#2b5952"></rect><defs><linearGradient id="grad1_0" x1="33.3%" y1="0%" x2="100%" y2="100%"><stop offset="20%" stop-color="#fcecc1" stop-opacity="1"></stop><stop offset="80%" stop-color="#fcecc1" stop-opacity="1"></stop></linearGradient></defs><defs><linearGradient id="grad1_1" x1="33.3%" y1="0%" x2="100%" y2="100%"><stop offset="20%" stop-color="#fcecc1" stop-opacity="1"></stop><stop offset="80%" stop-color="#89a283" stop-opacity="1"></stop></linearGradient></defs><defs><linearGradient id="grad1_2" x1="33.3%" y1="0%" x2="100%" y2="100%"><stop offset="20%" stop-color="#2b5952" stop-opacity="1"></stop><stop offset="80%" stop-color="#89a283" stop-opacity="1"></stop></linearGradient></defs><defs><linearGradient id="grad2_0" x1="0%" y1="0%" x2="66.7%" y2="100%"><stop offset="20%" stop-color="#fcecc1" stop-opacity="1"></stop><stop offset="80%" stop-color="#fcecc1" stop-opacity="1"></stop></linearGradient></defs><defs><linearGradient id="grad2_1" x1="0%" y1="0%" x2="66.7%" y2="100%"><stop offset="20%" stop-color="#89a283" stop-opacity="1"></stop><stop offset="80%" stop-color="#fcecc1" stop-opacity="1"></stop></linearGradient></defs><defs><linearGradient id="grad2_2" x1="0%" y1="0%" x2="66.7%" y2="100%"><stop offset="20%" stop-color="#89a283" stop-opacity="1"></stop><stop offset="80%" stop-color="#2b5952" stop-opacity="1"></stop></linearGradient></defs><g transform="translate(900, 0)"><path d="M0 432.7C-46.5 430.1 -92.9 427.6 -133.7 411.5C-174.5 395.4 -209.5 365.6 -245.7 338.2C-281.8 310.7 -319.1 285.6 -346.3 251.6C-373.4 217.5 -390.5 174.4 -403.2 131C-416 87.6 -424.3 43.8 -432.7 0L0 0Z" fill="#577d6a"></path><path d="M0 288.4C-31 286.8 -62 285.1 -89.1 274.3C-116.3 263.6 -139.7 243.7 -163.8 225.4C-187.9 207.2 -212.7 190.4 -230.8 167.7C-249 145 -260.4 116.3 -268.8 87.3C-277.3 58.4 -282.9 29.2 -288.4 0L0 0Z" fill="#c0c79f"></path><path d="M0 144.2C-15.5 143.4 -31 142.5 -44.6 137.2C-58.2 131.8 -69.8 121.9 -81.9 112.7C-93.9 103.6 -106.4 95.2 -115.4 83.9C-124.5 72.5 -130.2 58.1 -134.4 43.7C-138.7 29.2 -141.4 14.6 -144.2 0L0 0Z" fill="#fcecc1"></path></g><g transform="translate(0, 600)"><path d="M0 -432.7C45.8 -429.2 91.5 -425.8 133.7 -411.5C175.9 -397.2 214.5 -372.1 249.8 -343.8C285.1 -315.6 317 -284.2 341.4 -248C365.8 -211.9 382.6 -171 396.6 -128.9C410.5 -86.7 421.6 -43.4 432.7 0L0 0Z" fill="#577d6a"></path><path d="M0 -288.4C30.5 -286.1 61 -283.8 89.1 -274.3C117.3 -264.8 143 -248.1 166.5 -229.2C190.1 -210.4 211.3 -189.5 227.6 -165.4C243.9 -141.3 255.1 -114 264.4 -85.9C273.7 -57.8 281.1 -28.9 288.4 0L0 0Z" fill="#c0c79f"></path><path d="M0 -144.2C15.3 -143.1 30.5 -141.9 44.6 -137.2C58.6 -132.4 71.5 -124 83.3 -114.6C95 -105.2 105.7 -94.7 113.8 -82.7C121.9 -70.6 127.5 -57 132.2 -43C136.8 -28.9 140.5 -14.5 144.2 0L0 0Z" fill="#fcecc1"></path></g></svg>