<svg xmlns="http://www.w3.org/2000/svg" version="1.1" xmlns:xlink="http://www.w3.org/1999/xlink" xmlns:svgjs="http://svgjs.dev/svgjs" width="1440" height="560" preserveAspectRatio="none" viewBox="0 0 1440 560"><g mask="url(&quot;#SvgjsMask1027&quot;)" fill="none"><path d="M951.143,146.115C978.276,145.363,995.963,120.805,1009.199,97.108C1022,74.19,1030.731,47.881,1019.174,24.311C1006.292,-1.963,980.404,-21.489,951.143,-21.3C922.15,-21.113,898.089,-0.495,884.616,25.179C872.107,49.017,874.256,76.9,887.232,100.488C900.754,125.069,923.099,146.892,951.143,146.115" fill="rgba(239, 209, 82, 0.4)" class="triangle-float1"></path><path d="M1495.599,657.522C1545.984,659.971,1586.246,620.403,1611.331,576.638C1636.254,533.155,1646.699,480.452,1622.128,436.769C1597.142,392.348,1546.553,369.782,1495.599,370.883C1446.564,371.942,1400.145,398.177,1378.199,442.039C1358.093,482.222,1376.344,526.804,1397.841,566.26C1420.7,608.216,1447.876,655.202,1495.599,657.522" fill="rgba(239, 209, 82, 0.4)" class="triangle-float3"></path><path d="M722.377,226.861C767.786,227.455,805.315,193.709,826.044,153.303C844.99,116.373,839.457,73.766,819.625,37.304C798.703,-1.163,766.155,-36.3,722.377,-37.297C677.236,-38.325,638.197,-7.25,617.142,32.693C597.464,70.023,603.199,113.549,623.307,150.649C644.585,189.91,677.725,226.276,722.377,226.861" fill="rgba(239, 209, 82, 0.4)" class="triangle-float2"></path><path d="M1391.455,158.618C1414.78,157.67,1434.408,141.904,1444.925,121.063C1454.453,102.183,1450.468,80.537,1440.181,62.06C1429.544,42.954,1413.31,25.744,1391.455,25.02C1368.543,24.261,1348.755,39.076,1336.798,58.636C1324.229,79.199,1318.329,104.591,1329.889,125.737C1341.85,147.617,1366.54,159.63,1391.455,158.618" fill="rgba(239, 209, 82, 0.4)" class="triangle-float2"></path><path d="M263.067,540.144C283.213,540.349,297.572,523.088,307.69,505.666C317.868,488.142,326.007,466.964,315.706,449.512C305.515,432.247,283.1,429.294,263.067,430.069C244.657,430.782,226.247,437.371,217.043,453.331C207.846,469.279,211.363,488.51,219.986,504.776C229.314,522.37,243.154,539.942,263.067,540.144" fill="rgba(239, 209, 82, 0.4)" class="triangle-float1"></path><path d="M144.078,655.74C199.739,658.738,259.305,640.453,286.363,591.719C312.866,543.984,290.574,488.037,263.519,440.612C236.133,392.607,199.268,345.215,144.078,342.305C84.69,339.174,27.28,373.588,0.63,426.752C-23.878,475.642,-2.954,531.352,26.079,577.698C52.911,620.531,93.608,653.021,144.078,655.74" fill="rgba(239, 209, 82, 0.4)" class="triangle-float3"></path><path d="M143.89,497.237C194.023,495.013,230.162,454.43,254.338,410.456C277.439,368.439,287.58,319.06,265.149,276.681C241.329,231.679,194.782,203.383,143.89,201.792C90.047,200.109,36.039,222.22,8.751,268.666C-18.855,315.652,-12.677,374.161,15.058,421.071C42.271,467.098,90.473,499.607,143.89,497.237" fill="rgba(239, 209, 82, 0.4)" class="triangle-float1"></path><path d="M1397.791,618.805C1427.757,620.858,1456.336,602.791,1470.251,576.173C1483.308,551.196,1476.335,521.495,1461.036,497.824C1447.132,476.312,1423.396,464.731,1397.791,464.06C1370.793,463.352,1341.6,470.717,1328.531,494.351C1315.745,517.473,1327.857,544.209,1340.705,567.297C1354.063,591.3,1370.385,616.927,1397.791,618.805" fill="rgba(239, 209, 82, 0.4)" class="triangle-float3"></path><path d="M901.375,549.431C951.399,547.766,997.083,518.955,1019.589,474.249C1040.165,433.378,1025.045,387.417,1003.17,347.226C979.944,304.552,949.957,256.49,901.375,257.05C853.288,257.604,827.944,308.075,803.561,349.525C778.641,391.887,747.092,438.454,768.693,482.601C792.02,530.276,848.328,551.197,901.375,549.431" fill="rgba(239, 209, 82, 0.4)" class="triangle-float2"></path></g><defs><mask id="SvgjsMask1027"><rect width="1440" height="560" fill="#ffffff"></rect></mask><style>
                @keyframes float1 {
                    0%{transform: translate(0, 0)}
                    50%{transform: translate(-10px, 0)}
                    100%{transform: translate(0, 0)}
                }

                .triangle-float1 {
                    animation: float1 5s infinite;
                }

                @keyframes float2 {
                    0%{transform: translate(0, 0)}
                    50%{transform: translate(-5px, -5px)}
                    100%{transform: translate(0, 0)}
                }

                .triangle-float2 {
                    animation: float2 4s infinite;
                }

                @keyframes float3 {
                    0%{transform: translate(0, 0)}
                    50%{transform: translate(0, -10px)}
                    100%{transform: translate(0, 0)}
                }

                .triangle-float3 {
                    animation: float3 6s infinite;
                }
            </style></defs></svg>