<svg xmlns="http://www.w3.org/2000/svg" version="1.1" xmlns:xlink="http://www.w3.org/1999/xlink" xmlns:svgjs="http://svgjs.dev/svgjs" width="1440" height="560" preserveAspectRatio="none" viewBox="0 0 1440 560"><g mask="url(&quot;#SvgjsMask1044&quot;)" fill="none"><path d="M155.24 440.22 a131.34 131.34 0 1 0 262.68 0 a131.34 131.34 0 1 0 -262.68 0z" fill="rgba(229, 190, 129, 0.4)" class="triangle-float2"></path><path d="M769.05 74.37 a102.69 102.69 0 1 0 205.38 0 a102.69 102.69 0 1 0 -205.38 0z" fill="rgba(229, 190, 129, 0.4)" class="triangle-float3"></path><path d="M746.165,715.187C796.118,715.285,838.09,682.064,863.407,639.002C889.123,595.259,899.087,541.611,874.212,497.385C848.915,452.409,797.684,427.626,746.165,430.557C699.039,433.238,664.148,469.461,641.089,510.647C618.678,550.674,608.754,597.74,629.716,638.545C652.474,682.846,696.36,715.089,746.165,715.187" fill="rgba(229, 190, 129, 0.4)" class="triangle-float2"></path><path d="M699.769,226.41C714.929,226.031,730.039,221.26,738.263,208.519C747.202,194.67,749.296,176.735,741.045,162.464C732.802,148.206,716.238,141.953,699.769,141.94C683.274,141.927,666.991,148.33,658.381,162.399C649.404,177.067,648.456,196.088,657.793,210.529C666.499,223.994,683.74,226.81,699.769,226.41" fill="rgba(229, 190, 129, 0.4)" class="triangle-float1"></path><path d="M27.47 314.74 a108.49 108.49 0 1 0 216.98 0 a108.49 108.49 0 1 0 -216.98 0z" fill="rgba(229, 190, 129, 0.4)" class="triangle-float2"></path><path d="M376.07 221.36 a135.27 135.27 0 1 0 270.54 0 a135.27 135.27 0 1 0 -270.54 0z" fill="rgba(229, 190, 129, 0.4)" class="triangle-float3"></path><path d="M500.443,450.887C536.036,449.631,568.728,433.594,588.345,403.868C610.409,370.433,623.79,328.143,604.677,292.938C584.898,256.506,541.792,238.986,500.443,241.955C463.542,244.605,438.055,274.381,419.267,306.251C400.071,338.812,382.596,377.514,401.095,410.476C419.848,443.89,462.15,452.238,500.443,450.887" fill="rgba(229, 190, 129, 0.4)" class="triangle-float2"></path><path d="M1083.094,201.975C1119.162,203.606,1152.43,182.528,1170.517,151.28C1188.638,119.972,1189.342,81.233,1171.042,50.03C1152.949,19.181,1118.853,2.777,1083.094,2.218C1046.241,1.642,1007.444,14.602,990.255,47.205C973.855,78.311,990.282,113.793,1008.371,143.948C1025.758,172.933,1049.329,200.448,1083.094,201.975" fill="rgba(229, 190, 129, 0.4)" class="triangle-float3"></path></g><defs><mask id="SvgjsMask1044"><rect width="1440" height="560" fill="#ffffff"></rect></mask><style>
                @keyframes float1 {
                    0%{transform: translate(0, 0)}
                    50%{transform: translate(-10px, 0)}
                    100%{transform: translate(0, 0)}
                }

                .triangle-float1 {
                    animation: float1 5s infinite;
                }

                @keyframes float2 {
                    0%{transform: translate(0, 0)}
                    50%{transform: translate(-5px, -5px)}
                    100%{transform: translate(0, 0)}
                }

                .triangle-float2 {
                    animation: float2 4s infinite;
                }

                @keyframes float3 {
                    0%{transform: translate(0, 0)}
                    50%{transform: translate(0, -10px)}
                    100%{transform: translate(0, 0)}
                }

                .triangle-float3 {
                    animation: float3 6s infinite;
                }
            </style></defs></svg>