<svg xmlns="http://www.w3.org/2000/svg" version="1.1" xmlns:xlink="http://www.w3.org/1999/xlink" xmlns:svgjs="http://svgjs.dev/svgjs" width="1440" height="560" preserveAspectRatio="none" viewBox="0 0 1440 560"><g mask="url(&quot;#SvgjsMask1022&quot;)" fill="none"><path d="M1342.352,251.022C1367.714,251.734,1392.423,240.016,1405.307,218.159C1418.38,195.981,1416.157,168.904,1404.193,146.109C1391.206,121.365,1370.297,98.35,1342.352,98.214C1314.24,98.077,1291.826,120.255,1279.457,145.5C1268.527,167.807,1272.515,193.452,1285.233,214.79C1297.606,235.548,1318.196,250.344,1342.352,251.022" fill="rgba(227, 163, 60, 0.4)" class="triangle-float2"></path><path d="M227.595,141.339C253.954,142.003,284.742,142.019,298.009,119.233C311.32,96.372,296.585,69.279,282.642,46.798C269.706,25.941,252.095,7.156,227.595,5.702C200.619,4.101,173.595,16.2,159.934,39.516C146.139,63.061,147.965,93.105,163.068,115.834C176.787,136.48,202.814,140.715,227.595,141.339" fill="rgba(227, 163, 60, 0.4)" class="triangle-float1"></path><path d="M624.192,730.379C679.731,729.368,712.512,674.934,740.055,626.695C767.268,579.034,794.287,524.876,769.478,475.921C742.858,423.393,683.079,397.79,624.192,398.068C565.811,398.343,508.588,425.689,481.261,477.281C455.34,526.218,473.554,582.831,500.785,631.051C528.615,680.332,567.605,731.409,624.192,730.379" fill="rgba(227, 163, 60, 0.4)" class="triangle-float1"></path><path d="M602.782,228.275C635.247,226.704,660.098,201.625,674.741,172.607C687.869,146.593,685.276,117.037,672.009,91.093C657.192,62.119,635.265,33.866,602.782,31.89C567.489,29.743,534.847,51.012,517.247,81.678C499.724,112.209,499.917,149.803,517.657,180.208C535.258,210.375,567.897,229.963,602.782,228.275" fill="rgba(227, 163, 60, 0.4)" class="triangle-float1"></path><path d="M1418.881,422.214C1454.842,423.111,1488.947,407.665,1509.366,378.05C1533.236,343.43,1550.565,298.336,1529.313,262.051C1508.197,225.999,1460.604,221.366,1418.881,223.561C1381.673,225.519,1344.919,240.091,1326.896,272.701C1309.369,304.415,1316.903,342.861,1335.89,373.723C1353.884,402.971,1384.552,421.358,1418.881,422.214" fill="rgba(227, 163, 60, 0.4)" class="triangle-float2"></path><path d="M686.974,440.214C717.869,440.536,748.516,430.189,765.761,404.552C785.218,375.627,792.853,338.174,776.218,307.539C758.936,275.711,723.183,258.677,686.974,259.454C652.078,260.203,620.461,280.386,604.125,311.231C588.748,340.265,593.227,375.293,610.983,402.937C627.325,428.38,656.737,439.899,686.974,440.214" fill="rgba(227, 163, 60, 0.4)" class="triangle-float3"></path><path d="M239.092,245.044C291.907,248.458,342.275,216.718,366.671,169.751C389.483,125.834,377.651,73.062,349.604,32.289C325.208,-3.177,282.131,-16.546,239.092,-15.718C197.736,-14.922,156.915,0.89,135.709,36.405C114.001,72.76,118.407,116.975,137.207,154.916C158.784,198.461,190.595,241.909,239.092,245.044" fill="rgba(227, 163, 60, 0.4)" class="triangle-float3"></path><path d="M136.793,27.365C151.128,26.97,165.591,22.881,173.369,10.834C181.807,-2.236,184.127,-19.681,175.545,-32.657C167.561,-44.73,151.267,-44.477,136.793,-44.472C122.332,-44.467,106.385,-44.473,98.086,-32.631C88.735,-19.287,87.718,-0.742,96.551,12.95C104.83,25.782,121.528,27.785,136.793,27.365" fill="rgba(227, 163, 60, 0.4)" class="triangle-float3"></path></g><defs><mask id="SvgjsMask1022"><rect width="1440" height="560" fill="#ffffff"></rect></mask><style>
                @keyframes float1 {
                    0%{transform: translate(0, 0)}
                    50%{transform: translate(-10px, 0)}
                    100%{transform: translate(0, 0)}
                }

                .triangle-float1 {
                    animation: float1 5s infinite;
                }

                @keyframes float2 {
                    0%{transform: translate(0, 0)}
                    50%{transform: translate(-5px, -5px)}
                    100%{transform: translate(0, 0)}
                }

                .triangle-float2 {
                    animation: float2 4s infinite;
                }

                @keyframes float3 {
                    0%{transform: translate(0, 0)}
                    50%{transform: translate(0, -10px)}
                    100%{transform: translate(0, 0)}
                }

                .triangle-float3 {
                    animation: float3 6s infinite;
                }
            </style></defs></svg>