<svg id="visual" viewBox="0 0 900 600" width="900" height="600" xmlns="http://www.w3.org/2000/svg" xmlns:xlink="http://www.w3.org/1999/xlink" version="1.1"><rect x="0" y="0" width="900" height="600" fill="#e3d5c2"></rect><defs><linearGradient id="grad1_0" x1="33.3%" y1="0%" x2="100%" y2="100%"><stop offset="20%" stop-color="#0f5862" stop-opacity="1"></stop><stop offset="80%" stop-color="#0f5862" stop-opacity="1"></stop></linearGradient></defs><defs><linearGradient id="grad1_1" x1="33.3%" y1="0%" x2="100%" y2="100%"><stop offset="20%" stop-color="#0f5862" stop-opacity="1"></stop><stop offset="80%" stop-color="#316a69" stop-opacity="1"></stop></linearGradient></defs><defs><linearGradient id="grad1_2" x1="33.3%" y1="0%" x2="100%" y2="100%"><stop offset="20%" stop-color="#4f7c71" stop-opacity="1"></stop><stop offset="80%" stop-color="#316a69" stop-opacity="1"></stop></linearGradient></defs><defs><linearGradient id="grad1_3" x1="33.3%" y1="0%" x2="100%" y2="100%"><stop offset="20%" stop-color="#4f7c71" stop-opacity="1"></stop><stop offset="80%" stop-color="#6e8e7b" stop-opacity="1"></stop></linearGradient></defs><defs><linearGradient id="grad1_4" x1="33.3%" y1="0%" x2="100%" y2="100%"><stop offset="20%" stop-color="#8ca088" stop-opacity="1"></stop><stop offset="80%" stop-color="#6e8e7b" stop-opacity="1"></stop></linearGradient></defs><defs><linearGradient id="grad1_5" x1="33.3%" y1="0%" x2="100%" y2="100%"><stop offset="20%" stop-color="#8ca088" stop-opacity="1"></stop><stop offset="80%" stop-color="#aab198" stop-opacity="1"></stop></linearGradient></defs><defs><linearGradient id="grad1_6" x1="33.3%" y1="0%" x2="100%" y2="100%"><stop offset="20%" stop-color="#c8c3ab" stop-opacity="1"></stop><stop offset="80%" stop-color="#aab198" stop-opacity="1"></stop></linearGradient></defs><defs><linearGradient id="grad1_7" x1="33.3%" y1="0%" x2="100%" y2="100%"><stop offset="20%" stop-color="#c8c3ab" stop-opacity="1"></stop><stop offset="80%" stop-color="#e3d5c2" stop-opacity="1"></stop></linearGradient></defs><defs><linearGradient id="grad2_0" x1="0%" y1="0%" x2="66.7%" y2="100%"><stop offset="20%" stop-color="#0f5862" stop-opacity="1"></stop><stop offset="80%" stop-color="#0f5862" stop-opacity="1"></stop></linearGradient></defs><defs><linearGradient id="grad2_1" x1="0%" y1="0%" x2="66.7%" y2="100%"><stop offset="20%" stop-color="#316a69" stop-opacity="1"></stop><stop offset="80%" stop-color="#0f5862" stop-opacity="1"></stop></linearGradient></defs><defs><linearGradient id="grad2_2" x1="0%" y1="0%" x2="66.7%" y2="100%"><stop offset="20%" stop-color="#316a69" stop-opacity="1"></stop><stop offset="80%" stop-color="#4f7c71" stop-opacity="1"></stop></linearGradient></defs><defs><linearGradient id="grad2_3" x1="0%" y1="0%" x2="66.7%" y2="100%"><stop offset="20%" stop-color="#6e8e7b" stop-opacity="1"></stop><stop offset="80%" stop-color="#4f7c71" stop-opacity="1"></stop></linearGradient></defs><defs><linearGradient id="grad2_4" x1="0%" y1="0%" x2="66.7%" y2="100%"><stop offset="20%" stop-color="#6e8e7b" stop-opacity="1"></stop><stop offset="80%" stop-color="#8ca088" stop-opacity="1"></stop></linearGradient></defs><defs><linearGradient id="grad2_5" x1="0%" y1="0%" x2="66.7%" y2="100%"><stop offset="20%" stop-color="#aab198" stop-opacity="1"></stop><stop offset="80%" stop-color="#8ca088" stop-opacity="1"></stop></linearGradient></defs><defs><linearGradient id="grad2_6" x1="0%" y1="0%" x2="66.7%" y2="100%"><stop offset="20%" stop-color="#aab198" stop-opacity="1"></stop><stop offset="80%" stop-color="#c8c3ab" stop-opacity="1"></stop></linearGradient></defs><defs><linearGradient id="grad2_7" x1="0%" y1="0%" x2="66.7%" y2="100%"><stop offset="20%" stop-color="#e3d5c2" stop-opacity="1"></stop><stop offset="80%" stop-color="#c8c3ab" stop-opacity="1"></stop></linearGradient></defs><g transform="translate(900, 0)"><path d="M0 513.8C-27.4 514.2 -54.8 514.7 -80.4 507.5C-105.9 500.3 -129.6 485.4 -154.5 475.5C-179.4 465.7 -205.5 460.8 -229.7 450.8C-253.9 440.9 -276.1 425.8 -298 410.2C-319.9 394.6 -341.5 378.4 -357.8 357.8C-374.1 337.2 -385 312.1 -398.8 289.8C-412.7 267.5 -429.3 248 -444.6 226.5C-459.9 205 -473.8 181.5 -481.2 156.4C-488.6 131.2 -489.5 104.5 -493.8 78.2C-498.2 51.9 -506 25.9 -513.8 0L0 0Z" fill="#d6ccb6"></path><path d="M0 449.6C-24 450 -48 450.3 -70.3 444C-92.7 437.7 -113.4 424.7 -135.2 416.1C-157 407.5 -179.9 403.2 -201 394.5C-222.2 385.8 -241.6 372.6 -260.8 358.9C-279.9 345.2 -298.8 331.1 -313.1 313.1C-327.3 295 -336.9 273.1 -349 253.6C-361.1 234.1 -375.7 217 -389 198.2C-402.4 179.4 -414.6 158.8 -421.1 136.8C-427.6 114.8 -428.3 91.5 -432.1 68.4C-435.9 45.4 -442.7 22.7 -449.6 0L0 0Z" fill="#b9baa1"></path><path d="M0 385.3C-20.6 385.7 -41.1 386 -60.3 380.6C-79.4 375.2 -97.2 364 -115.9 356.6C-134.6 349.3 -154.2 345.6 -172.3 338.1C-190.4 330.7 -207.1 319.3 -223.5 307.6C-239.9 295.9 -256.1 283.8 -268.3 268.3C-280.6 252.9 -288.8 234 -299.1 217.3C-309.5 200.6 -322 186 -333.5 169.9C-344.9 153.8 -355.4 136.1 -360.9 117.3C-366.5 98.4 -367.1 78.4 -370.4 58.7C-373.6 38.9 -379.5 19.5 -385.3 0L0 0Z" fill="#9ba88f"></path><path d="M0 321.1C-17.1 321.4 -34.3 321.7 -50.2 317.2C-66.2 312.7 -81 303.4 -96.6 297.2C-112.1 291 -128.5 288 -143.6 281.8C-158.7 275.5 -172.6 266.1 -186.3 256.4C-199.9 246.6 -213.4 236.5 -223.6 223.6C-233.8 210.7 -240.6 195 -249.3 181.1C-257.9 167.2 -268.3 155 -277.9 141.6C-287.4 128.1 -296.1 113.4 -300.8 97.7C-305.4 82 -305.9 65.3 -308.7 48.9C-311.4 32.4 -316.2 16.2 -321.1 0L0 0Z" fill="#7d9781"></path><path d="M0 256.9C-13.7 257.1 -27.4 257.3 -40.2 253.7C-53 250.1 -64.8 242.7 -77.3 237.8C-89.7 232.8 -102.8 230.4 -114.9 225.4C-126.9 220.4 -138.1 212.9 -149 205.1C-160 197.3 -170.8 189.2 -178.9 178.9C-187 168.6 -192.5 156 -199.4 144.9C-206.3 133.7 -214.7 124 -222.3 113.3C-230 102.5 -236.9 90.7 -240.6 78.2C-244.3 65.6 -244.8 52.3 -246.9 39.1C-249.1 25.9 -253 13 -256.9 0L0 0Z" fill="#5e8576"></path><path d="M0 192.7C-10.3 192.8 -20.6 193 -30.1 190.3C-39.7 187.6 -48.6 182 -57.9 178.3C-67.3 174.6 -77.1 172.8 -86.1 169.1C-95.2 165.3 -103.5 159.7 -111.8 153.8C-120 148 -128.1 141.9 -134.2 134.2C-140.3 126.4 -144.4 117 -149.6 108.7C-154.7 100.3 -161 93 -166.7 85C-172.5 76.9 -177.7 68.1 -180.5 58.6C-183.2 49.2 -183.6 39.2 -185.2 29.3C-186.8 19.5 -189.7 9.7 -192.7 0L0 0Z" fill="#40736d"></path><path d="M0 128.4C-6.9 128.6 -13.7 128.7 -20.1 126.9C-26.5 125.1 -32.4 121.3 -38.6 118.9C-44.9 116.4 -51.4 115.2 -57.4 112.7C-63.5 110.2 -69 106.4 -74.5 102.5C-80 98.6 -85.4 94.6 -89.4 89.4C-93.5 84.3 -96.3 78 -99.7 72.4C-103.2 66.9 -107.3 62 -111.2 56.6C-115 51.3 -118.5 45.4 -120.3 39.1C-122.2 32.8 -122.4 26.1 -123.5 19.6C-124.5 13 -126.5 6.5 -128.4 0L0 0Z" fill="#226166"></path><path d="M0 64.2C-3.4 64.3 -6.9 64.3 -10 63.4C-13.2 62.5 -16.2 60.7 -19.3 59.4C-22.4 58.2 -25.7 57.6 -28.7 56.4C-31.7 55.1 -34.5 53.2 -37.3 51.3C-40 49.3 -42.7 47.3 -44.7 44.7C-46.8 42.1 -48.1 39 -49.9 36.2C-51.6 33.4 -53.7 31 -55.6 28.3C-57.5 25.6 -59.2 22.7 -60.2 19.5C-61.1 16.4 -61.2 13.1 -61.7 9.8C-62.3 6.5 -63.2 3.2 -64.2 0L0 0Z" fill="#0f5862"></path></g><g transform="translate(0, 600)"><path d="M0 -513.8C24.8 -499.9 49.6 -486 76.7 -484C103.7 -481.9 132.9 -491.8 157.9 -486C182.9 -480.2 203.7 -458.8 225.6 -442.8C247.6 -426.8 270.7 -416.2 292.7 -402.9C314.7 -389.6 335.7 -373.6 357.1 -357.1C378.5 -340.6 400.4 -323.5 414.2 -300.9C428.1 -278.4 433.9 -250.5 441.9 -225.2C449.9 -199.8 460.1 -177 472.7 -153.6C485.2 -130.1 500.2 -106.1 507.5 -80.4C514.7 -54.7 514.3 -27.3 513.8 0L0 0Z" fill="#d6ccb6"></path><path d="M0 -449.6C21.7 -437.4 43.4 -425.3 67.1 -423.5C90.7 -421.7 116.3 -430.3 138.2 -425.2C160 -420.2 178.2 -401.5 197.4 -387.5C216.6 -373.5 236.9 -364.2 256.1 -352.5C275.4 -340.9 293.7 -326.9 312.5 -312.5C331.2 -298 350.3 -283 362.4 -263.3C374.6 -243.6 379.7 -219.2 386.7 -197C393.7 -174.8 402.6 -154.9 413.6 -134.4C424.6 -113.9 437.7 -92.8 444 -70.3C450.4 -47.8 450 -23.9 449.6 0L0 0Z" fill="#b9baa1"></path><path d="M0 -385.3C18.6 -374.9 37.2 -364.5 57.5 -363C77.8 -361.5 99.7 -368.8 118.4 -364.5C137.2 -360.2 152.8 -344.1 169.2 -332.1C185.7 -320.1 203 -312.1 219.5 -302.2C236.1 -292.2 251.8 -280.2 267.8 -267.8C283.9 -255.4 300.3 -242.6 310.7 -225.7C321.1 -208.8 325.4 -187.9 331.5 -168.9C337.5 -149.9 345.1 -132.8 354.5 -115.2C363.9 -97.6 375.2 -79.6 380.6 -60.3C386 -41 385.7 -20.5 385.3 0L0 0Z" fill="#9ba88f"></path><path d="M0 -321.1C15.5 -312.4 31 -303.8 47.9 -302.5C64.8 -301.2 83.1 -307.4 98.7 -303.7C114.3 -300.1 127.3 -286.8 141 -276.8C154.7 -266.8 169.2 -260.1 182.9 -251.8C196.7 -243.5 209.8 -233.5 223.2 -223.2C236.6 -212.8 250.2 -202.2 258.9 -188.1C267.5 -174 271.2 -156.6 276.2 -140.7C281.2 -124.9 287.6 -110.6 295.4 -96C303.3 -81.3 312.6 -66.3 317.2 -50.2C321.7 -34.2 321.4 -17.1 321.1 0L0 0Z" fill="#7d9781"></path><path d="M0 -256.9C12.4 -249.9 24.8 -243 38.3 -242C51.8 -241 66.5 -245.9 79 -243C91.5 -240.1 101.8 -229.4 112.8 -221.4C123.8 -213.4 135.3 -208.1 146.4 -201.4C157.4 -194.8 167.8 -186.8 178.5 -178.5C189.2 -170.3 200.2 -161.7 207.1 -150.5C214 -139.2 217 -125.3 221 -112.6C225 -99.9 230.1 -88.5 236.3 -76.8C242.6 -65.1 250.1 -53 253.7 -40.2C257.4 -27.3 257.1 -13.7 256.9 0L0 0Z" fill="#5e8576"></path><path d="M0 -192.7C9.3 -187.5 18.6 -182.3 28.7 -181.5C38.9 -180.7 49.8 -184.4 59.2 -182.2C68.6 -180.1 76.4 -172.1 84.6 -166.1C92.8 -160.1 101.5 -156.1 109.8 -151.1C118 -146.1 125.9 -140.1 133.9 -133.9C141.9 -127.7 150.1 -121.3 155.3 -112.9C160.5 -104.4 162.7 -94 165.7 -84.4C168.7 -74.9 172.5 -66.4 177.3 -57.6C182 -48.8 187.6 -39.8 190.3 -30.1C193 -20.5 192.8 -10.3 192.7 0L0 0Z" fill="#40736d"></path><path d="M0 -128.4C6.2 -125 12.4 -121.5 19.2 -121C25.9 -120.5 33.2 -122.9 39.5 -121.5C45.7 -120.1 50.9 -114.7 56.4 -110.7C61.9 -106.7 67.7 -104 73.2 -100.7C78.7 -97.4 83.9 -93.4 89.3 -89.3C94.6 -85.1 100.1 -80.9 103.6 -75.2C107 -69.6 108.5 -62.6 110.5 -56.3C112.5 -50 115 -44.3 118.2 -38.4C121.3 -32.5 125.1 -26.5 126.9 -20.1C128.7 -13.7 128.6 -6.8 128.4 0L0 0Z" fill="#226166"></path><path d="M0 -64.2C3.1 -62.5 6.2 -60.8 9.6 -60.5C13 -60.2 16.6 -61.5 19.7 -60.7C22.9 -60 25.5 -57.4 28.2 -55.4C30.9 -53.4 33.8 -52 36.6 -50.4C39.3 -48.7 42 -46.7 44.6 -44.6C47.3 -42.6 50 -40.4 51.8 -37.6C53.5 -34.8 54.2 -31.3 55.2 -28.1C56.2 -25 57.5 -22.1 59.1 -19.2C60.7 -16.3 62.5 -13.3 63.4 -10C64.3 -6.8 64.3 -3.4 64.2 0L0 0Z" fill="#0f5862"></path></g></svg>