<svg xmlns="http://www.w3.org/2000/svg" version="1.1" xmlns:xlink="http://www.w3.org/1999/xlink" xmlns:svgjs="http://svgjs.dev/svgjs" width="1440" height="560" preserveAspectRatio="none" viewBox="0 0 1440 560"><g mask="url(&quot;#SvgjsMask1024&quot;)" fill="none"><path d="M1354.101,426.594C1381.178,426.268,1407.385,416.729,1422.727,394.415C1440.517,368.542,1450.527,335.348,1435.965,307.53C1420.549,278.082,1387.25,260.877,1354.101,263.322C1324.238,265.525,1304.991,291.879,1290.786,318.239C1277.516,342.865,1268.436,371.951,1282.549,396.104C1296.568,420.095,1326.316,426.929,1354.101,426.594" fill="rgba(239, 189, 157, 0.4)" class="triangle-float2"></path><path d="M1124.61,159.517C1158.618,157.358,1185.978,134.814,1203.134,105.372C1220.433,75.684,1226.955,40.52,1211.964,9.603C1194.882,-25.625,1163.754,-57.304,1124.61,-56.567C1086.292,-55.846,1061.639,-20.572,1042.772,12.787C1024.3,45.447,1008.409,83.803,1026.686,116.573C1045.294,149.936,1086.486,161.937,1124.61,159.517" fill="rgba(239, 189, 157, 0.4)" class="triangle-float1"></path><path d="M624.188,208.772C670.459,207.432,714.667,190.18,740.561,151.81C770.122,108.005,788.106,51.004,761.448,5.375C734.947,-39.986,676.719,-48.043,624.188,-47.381C573.142,-46.738,519.806,-34.557,492.789,8.758C464.395,54.281,466.063,114.066,495.522,158.907C522.59,200.11,574.91,210.199,624.188,208.772" fill="rgba(239, 189, 157, 0.4)" class="triangle-float1"></path><path d="M450.8,252.269C485.329,253.617,519.033,239.481,538.122,210.677C559.446,178.501,569.249,136.445,549.564,103.24C530.16,70.509,488.822,61.934,450.8,63.381C415.654,64.718,380.989,79.359,364.249,110.291C348.17,140.002,356.956,175.443,374.541,204.289C391.295,231.773,418.637,251.013,450.8,252.269" fill="rgba(239, 189, 157, 0.4)" class="triangle-float1"></path><path d="M1005.611,720.452C1055.157,722.909,1107.413,712.64,1135.692,671.883C1167.931,625.419,1179.176,561.811,1148.766,514.13C1119.867,468.819,1059.313,465.846,1005.611,467.927C956.578,469.827,904.769,481.9,880.466,524.529C856.335,566.856,869.879,618.942,896.106,660.003C920.161,697.663,960.979,718.239,1005.611,720.452" fill="rgba(239, 189, 157, 0.4)" class="triangle-float2"></path><path d="M70.493,643.932C105.267,641.575,125.981,608.275,141.561,577.097C155.119,549.965,159.615,519.556,146.248,492.329C131.034,461.34,104.963,434.234,70.493,432.342C33.106,430.29,-2.441,450.722,-21.178,483.14C-39.929,515.583,-38.038,555.458,-19.479,588.011C-0.734,620.89,32.733,646.491,70.493,643.932" fill="rgba(239, 189, 157, 0.4)" class="triangle-float3"></path><path d="M389.876,142.389C421.931,141.046,447.45,117.232,461.703,88.489C474.388,62.909,471.2,33.021,456.141,8.762C441.933,-14.127,416.801,-26.327,389.876,-27.223C361.064,-28.182,331.712,-19.759,315.506,4.082C297.167,31.061,291.36,66.246,306.81,94.978C322.993,125.073,355.736,143.819,389.876,142.389" fill="rgba(239, 189, 157, 0.4)" class="triangle-float2"></path><path d="M165.75,740.629C215.164,742.591,267.438,725.065,290.93,681.548C313.604,639.546,292.198,591.383,268.767,549.799C244.729,507.137,214.711,460.225,165.75,459.388C115.895,458.535,79.183,501.792,56.445,546.168C35.904,586.255,34.611,632.981,56.682,672.246C79.218,712.339,119.794,738.804,165.75,740.629" fill="rgba(239, 189, 157, 0.4)" class="triangle-float3"></path></g><defs><mask id="SvgjsMask1024"><rect width="1440" height="560" fill="#ffffff"></rect></mask><style>
                @keyframes float1 {
                    0%{transform: translate(0, 0)}
                    50%{transform: translate(-10px, 0)}
                    100%{transform: translate(0, 0)}
                }

                .triangle-float1 {
                    animation: float1 5s infinite;
                }

                @keyframes float2 {
                    0%{transform: translate(0, 0)}
                    50%{transform: translate(-5px, -5px)}
                    100%{transform: translate(0, 0)}
                }

                .triangle-float2 {
                    animation: float2 4s infinite;
                }

                @keyframes float3 {
                    0%{transform: translate(0, 0)}
                    50%{transform: translate(0, -10px)}
                    100%{transform: translate(0, 0)}
                }

                .triangle-float3 {
                    animation: float3 6s infinite;
                }
            </style></defs></svg>