<svg xmlns="http://www.w3.org/2000/svg" version="1.1" xmlns:xlink="http://www.w3.org/1999/xlink" xmlns:svgjs="http://svgjs.dev/svgjs" width="1200" height="560" preserveAspectRatio="none" viewBox="0 0 1200 560"><g mask="url(&quot;#SvgjsMask1181&quot;)" fill="none"><path d="M644.476,345.06C678.02,344.477,706.069,321.332,721.715,291.655C736.297,263.994,734.538,231.17,718.745,204.182C703.12,177.482,675.412,159.792,644.476,159.663C613.322,159.534,585.329,176.949,569.129,203.56C552.203,231.364,547.139,265.694,562.438,294.426C578.626,324.827,610.039,345.659,644.476,345.06" fill="rgba(233, 185, 155, 0.4)" class="triangle-float3"></path><path d="M926.29 512.89 a144.15 144.15 0 1 0 288.3 0 a144.15 144.15 0 1 0 -288.3 0z" fill="rgba(233, 185, 155, 0.4)" class="triangle-float2"></path><path d="M594.94 427.36 a127.65 127.65 0 1 0 255.3 0 a127.65 127.65 0 1 0 -255.3 0z" fill="rgba(233, 185, 155, 0.4)" class="triangle-float2"></path><path d="M508.01,314.951C536.274,315.213,560.582,295.554,573.342,270.333C584.952,247.385,580.528,220.422,566.855,198.64C554.097,178.317,531.992,165.447,508.01,166.259C485.302,167.027,467.585,183.048,455.683,202.402C443.027,222.983,434.558,247.232,444.744,269.141C456.509,294.446,480.105,314.692,508.01,314.951" fill="rgba(233, 185, 155, 0.4)" class="triangle-float1"></path><path d="M258.176,345.869C291.952,343.83,309.947,309.437,325.77,279.527C340.186,252.276,353.961,220.798,338.428,194.168C322.972,167.671,288.806,161.978,258.176,163.646C230.789,165.138,206.98,179.339,191.76,202.156C174.288,228.349,161.591,260.058,174.8,288.639C189.957,321.436,222.112,348.046,258.176,345.869" fill="rgba(233, 185, 155, 0.4)" class="triangle-float2"></path><path d="M184.16 227.57 a119.83 119.83 0 1 0 239.66 0 a119.83 119.83 0 1 0 -239.66 0z" fill="rgba(233, 185, 155, 0.4)" class="triangle-float1"></path><path d="M83.67 72.92 a141.65 141.65 0 1 0 283.3 0 a141.65 141.65 0 1 0 -283.3 0z" fill="rgba(233, 185, 155, 0.4)" class="triangle-float3"></path><path d="M593.169,422.664C615.385,421.116,627.606,399.43,638.757,380.153C649.931,360.835,663.455,339.007,652.945,319.32C642.071,298.952,616.195,293.052,593.169,294.759C573.068,296.249,557.704,310.099,546.993,327.173C535.34,345.748,525.518,367.638,535.064,387.379C545.637,409.244,568.941,424.352,593.169,422.664" fill="rgba(233, 185, 155, 0.4)" class="triangle-float2"></path><path d="M157.65 529.22 a120.89 120.89 0 1 0 241.78 0 a120.89 120.89 0 1 0 -241.78 0z" fill="rgba(233, 185, 155, 0.4)" class="triangle-float3"></path></g><defs><mask id="SvgjsMask1181"><rect width="1200" height="560" fill="#ffffff"></rect></mask><style>
                @keyframes float1 {
                    0%{transform: translate(0, 0)}
                    50%{transform: translate(-10px, 0)}
                    100%{transform: translate(0, 0)}
                }

                .triangle-float1 {
                    animation: float1 5s infinite;
                }

                @keyframes float2 {
                    0%{transform: translate(0, 0)}
                    50%{transform: translate(-5px, -5px)}
                    100%{transform: translate(0, 0)}
                }

                .triangle-float2 {
                    animation: float2 4s infinite;
                }

                @keyframes float3 {
                    0%{transform: translate(0, 0)}
                    50%{transform: translate(0, -10px)}
                    100%{transform: translate(0, 0)}
                }

                .triangle-float3 {
                    animation: float3 6s infinite;
                }
            </style></defs></svg>