<svg xmlns="http://www.w3.org/2000/svg" version="1.1" xmlns:xlink="http://www.w3.org/1999/xlink" xmlns:svgjs="http://svgjs.dev/svgjs" width="1200" height="560" preserveAspectRatio="none" viewBox="0 0 1200 560"><g mask="url(&quot;#SvgjsMask1081&quot;)" fill="none"><path d="M987.025,100.126C1001.486,100.275,1014.978,93.108,1022.604,80.82C1030.684,67.799,1033.18,51.326,1025.559,38.031C1017.904,24.676,1002.403,18.048,987.025,18.75C972.795,19.399,961.091,28.859,954.135,41.29C947.36,53.398,945.925,67.988,952.695,80.099C959.623,92.493,972.827,99.979,987.025,100.126" fill="rgba(223, 203, 171, 0.4)" class="triangle-float2"></path><path d="M1199.169,546.618C1245.807,550.128,1292.22,525.664,1314.394,484.484C1335.639,445.028,1323.181,398.085,1299.701,359.917C1277.518,323.858,1241.505,297.144,1199.169,297.182C1156.893,297.22,1118.32,322.52,1098.948,360.096C1080.996,394.918,1091.975,434.63,1110.518,469.141C1130.427,506.194,1157.225,543.461,1199.169,546.618" fill="rgba(223, 203, 171, 0.4)" class="triangle-float2"></path><path d="M98.528,350.577C133.227,350.526,169.066,340.088,186.925,310.338C205.231,279.844,198.805,242.437,182.385,210.887C164.326,176.189,137.623,139.209,98.528,140.493C60.544,141.741,41.293,182.414,23.699,216.1C7.898,246.352,-6.912,280.773,9.683,310.597C26.607,341.012,63.721,350.628,98.528,350.577" fill="rgba(223, 203, 171, 0.4)" class="triangle-float3"></path><path d="M1127.893,204.375C1163.484,203.855,1194.6,183.531,1213.468,153.348C1233.708,120.97,1243.382,81.287,1226.129,47.224C1207.305,10.061,1169.536,-16.753,1127.893,-15.597C1087.824,-14.485,1057.299,16.936,1038.67,52.428C1021.487,85.166,1019.15,124.031,1037.872,155.915C1056.367,187.411,1091.372,204.909,1127.893,204.375" fill="rgba(223, 203, 171, 0.4)" class="triangle-float2"></path><path d="M228.318,590.661C251.818,591.009,275.041,582.815,288.147,563.305C302.93,541.299,308.176,513.218,296.242,489.546C283.145,463.569,257.383,443.376,228.318,444.635C200.776,445.828,181.926,470.226,169.875,495.021C159.478,516.413,159.079,541.281,171.481,561.577C183.375,581.041,205.511,590.323,228.318,590.661" fill="rgba(223, 203, 171, 0.4)" class="triangle-float2"></path><path d="M123.401,398.832C143.695,397.768,154.982,377.969,165.5,360.581C176.605,342.221,191.233,321.85,181.545,302.705C171.315,282.489,146.051,276.825,123.401,277.386C101.865,277.919,80.76,286.78,70.04,305.467C59.366,324.073,62.244,346.816,72.888,365.439C83.622,384.221,101.798,399.965,123.401,398.832" fill="rgba(223, 203, 171, 0.4)" class="triangle-float2"></path><path d="M1083.427,384.743C1104.809,385.165,1128.67,382.323,1139.543,363.907C1150.535,345.289,1143.113,321.961,1131.109,303.979C1120.508,288.099,1102.519,280.051,1083.427,279.846C1063.918,279.637,1044.453,286.502,1033.939,302.937C1022.599,320.663,1020.128,343.761,1031.02,361.766C1041.602,379.258,1062.987,384.34,1083.427,384.743" fill="rgba(223, 203, 171, 0.4)" class="triangle-float3"></path><path d="M1093.174,714.734C1140.606,714.23,1182.405,686.136,1206.236,645.122C1230.19,603.896,1237.11,551.723,1211.113,511.754C1186.825,474.412,1137.689,469.645,1093.174,471.294C1052.271,472.809,1012.135,485.89,989.459,519.966C964.06,558.134,954.32,607.105,975.869,647.572C998.567,690.197,1044.885,715.248,1093.174,714.734" fill="rgba(223, 203, 171, 0.4)" class="triangle-float2"></path></g><defs><mask id="SvgjsMask1081"><rect width="1200" height="560" fill="#ffffff"></rect></mask><style>
                @keyframes float1 {
                    0%{transform: translate(0, 0)}
                    50%{transform: translate(-10px, 0)}
                    100%{transform: translate(0, 0)}
                }

                .triangle-float1 {
                    animation: float1 5s infinite;
                }

                @keyframes float2 {
                    0%{transform: translate(0, 0)}
                    50%{transform: translate(-5px, -5px)}
                    100%{transform: translate(0, 0)}
                }

                .triangle-float2 {
                    animation: float2 4s infinite;
                }

                @keyframes float3 {
                    0%{transform: translate(0, 0)}
                    50%{transform: translate(0, -10px)}
                    100%{transform: translate(0, 0)}
                }

                .triangle-float3 {
                    animation: float3 6s infinite;
                }
            </style></defs></svg>