<svg id="visual" viewBox="0 0 900 600" width="900" height="600" xmlns="http://www.w3.org/2000/svg" xmlns:xlink="http://www.w3.org/1999/xlink" version="1.1"><rect x="0" y="0" width="900" height="600" fill="#ffebdf"></rect><path d="M428 0L411.5 20C395 40 362 80 353.2 120C344.3 160 359.7 200 375.8 240C392 280 409 320 425.5 360C442 400 458 440 448.2 480C438.3 520 402.7 560 384.8 580L367 600L0 600L0 580C0 560 0 520 0 480C0 440 0 400 0 360C0 320 0 280 0 240C0 200 0 160 0 120C0 80 0 40 0 20L0 0Z" fill="#726F5F" stroke-linecap="round" stroke-linejoin="miter"></path></svg>