<svg xmlns="http://www.w3.org/2000/svg" version="1.1" xmlns:xlink="http://www.w3.org/1999/xlink" xmlns:svgjs="http://svgjs.dev/svgjs" width="1440" height="560" preserveAspectRatio="none" viewBox="0 0 1440 560"><g mask="url(&quot;#SvgjsMask1069&quot;)" fill="none"><rect width="1440" height="560" x="0" y="0" fill="rgba(240, 197, 43, 1)"></rect><path d="M 0,20 C 72,70.6 216,265.8 360,273 C 504,280.2 576,69.2 720,56 C 864,42.8 936,208 1080,207 C 1224,206 1368,82.2 1440,51L1440 560L0 560z" fill="rgba(255, 223, 209, 1)"></path><path d="M 0,501 C 48,478.4 144,388.4 240,388 C 336,387.6 384,509.6 480,499 C 576,488.4 624,346 720,335 C 816,324 864,431.2 960,444 C 1056,456.8 1104,401 1200,399 C 1296,397 1392,427 1440,434L1440 560L0 560z" fill="rgba(191, 84, 58, 1)"></path></g><defs><mask id="SvgjsMask1069"><rect width="1440" height="560" fill="#ffffff"></rect></mask></defs></svg>