<svg xmlns="http://www.w3.org/2000/svg" version="1.1" xmlns:xlink="http://www.w3.org/1999/xlink" xmlns:svgjs="http://svgjs.dev/svgjs" width="1440" height="560" preserveAspectRatio="none" viewBox="0 0 1440 560"><g mask="url(&quot;#SvgjsMask1039&quot;)" fill="none"><path d="M985.59 230.78 a134.43 134.43 0 1 0 268.86 0 a134.43 134.43 0 1 0 -268.86 0z" fill="rgba(239, 209, 82, 0.4)" class="triangle-float1"></path><path d="M61.387,398.938C99.241,399.739,136.156,381.789,154.762,348.814C173.084,316.34,167.624,276.616,148.447,244.64C129.858,213.645,97.528,192.848,61.387,193.118C25.687,193.385,-5.738,214.925,-23.448,245.924C-41.011,276.665,-42.553,314.038,-25.386,345.002C-7.687,376.926,24.893,398.166,61.387,398.938" fill="rgba(239, 209, 82, 0.4)" class="triangle-float3"></path><path d="M1268.809,182.401C1300.529,180.811,1331.352,168.821,1347.824,141.666C1364.903,113.51,1366.433,77.702,1349.422,49.505C1332.91,22.136,1300.768,10.122,1268.809,10.694C1237.933,11.247,1210.297,26.691,1193.048,52.306C1173.148,81.857,1156.844,119.552,1174.773,150.339C1192.636,181.012,1233.358,184.178,1268.809,182.401" fill="rgba(239, 209, 82, 0.4)" class="triangle-float1"></path><path d="M933.93,711.409C983.173,710.736,1035.24,700.221,1061.15,658.34C1088.189,614.634,1083.218,557.991,1055.693,514.589C1029.98,474.045,981.912,459.37,933.93,457.735C882.081,455.968,825.267,462.339,796.892,505.77C766.375,552.48,769.6,615.471,800.541,661.901C828.73,704.201,883.103,712.103,933.93,711.409" fill="rgba(239, 209, 82, 0.4)" class="triangle-float3"></path><path d="M435.272,527.156C469.44,526.401,499.433,504.876,515.159,474.533C529.716,446.445,524.096,413.658,508.302,386.247C492.48,358.787,466.882,338.17,435.272,335.889C399.136,333.281,360.156,343.217,341.379,374.201C322.069,406.064,329.532,446.453,349.024,478.206C367.559,508.401,399.851,527.939,435.272,527.156" fill="rgba(239, 209, 82, 0.4)" class="triangle-float1"></path><path d="M590.917,324.722C642.682,323.471,694.032,302.2,718.959,256.815C743.12,212.824,727.856,161.708,704.989,117.031C679.151,66.551,647.613,7.846,590.917,6.656C533.145,5.444,495.797,61.271,468.24,112.062C442.323,159.83,424.53,216.2,451.686,263.275C478.855,310.371,536.562,326.036,590.917,324.722" fill="rgba(239, 209, 82, 0.4)" class="triangle-float1"></path><path d="M906.39 548.32 a107.35 107.35 0 1 0 214.7 0 a107.35 107.35 0 1 0 -214.7 0z" fill="rgba(239, 209, 82, 0.4)" class="triangle-float3"></path><path d="M689.641,354.436C726.681,352.483,759.564,332.677,778.531,300.802C797.975,268.125,804.296,227.186,784.775,194.555C765.676,162.629,726.788,150.164,689.641,152.213C656.054,154.065,629.857,176.213,611.098,204.134C589.053,236.946,564.57,276.085,582.878,311.12C601.942,347.601,648.536,356.604,689.641,354.436" fill="rgba(239, 209, 82, 0.4)" class="triangle-float3"></path></g><defs><mask id="SvgjsMask1039"><rect width="1440" height="560" fill="#ffffff"></rect></mask><style>
                @keyframes float1 {
                    0%{transform: translate(0, 0)}
                    50%{transform: translate(-10px, 0)}
                    100%{transform: translate(0, 0)}
                }

                .triangle-float1 {
                    animation: float1 5s infinite;
                }

                @keyframes float2 {
                    0%{transform: translate(0, 0)}
                    50%{transform: translate(-5px, -5px)}
                    100%{transform: translate(0, 0)}
                }

                .triangle-float2 {
                    animation: float2 4s infinite;
                }

                @keyframes float3 {
                    0%{transform: translate(0, 0)}
                    50%{transform: translate(0, -10px)}
                    100%{transform: translate(0, 0)}
                }

                .triangle-float3 {
                    animation: float3 6s infinite;
                }
            </style></defs></svg>